<svg width="30" height="28" viewBox="0 0 30 28" fill="none" xmlns="http://www.w3.org/2000/svg">
<path d="M16.0005 0V0C7.16378 0 0.00021553 7.16356 0.00021553 16.0003V27.6368H16.0005V0Z" fill="#65A300"/>
<path d="M15.2729 27.6368C17.0876 27.6368 18.8844 27.2794 20.561 26.585C22.2375 25.8905 23.7608 24.8727 25.044 23.5895C26.3271 22.3064 27.345 20.783 28.0394 19.1065C28.7339 17.43 29.0913 15.6331 29.0913 13.8184C29.0913 12.0038 28.7339 10.2069 28.0394 8.53034C27.345 6.85381 26.3271 5.33048 25.044 4.04732C23.7608 2.76416 22.2375 1.7463 20.561 1.05186C18.8844 0.357423 17.0876 -6.83344e-07 15.2729 -6.04022e-07L15.2729 13.8184L15.2729 27.6368Z" fill="#782F9B"/>
<circle cx="20.3642" cy="13.0908" r="2.90914" fill="#FAFAFA"/>
</svg>
